<svg width="16" height="16" viewBox="0 0 16 16" fill="none" xmlns="http://www.w3.org/2000/svg">
<path d="M13.469 10.6239V7.42118C13.469 4.67053 13.469 3.29521 12.6237 2.4407C11.7783 1.58618 10.4177 1.58618 7.69658 1.58618C4.97542 1.58618 3.61484 1.58618 2.76949 2.4407C1.92413 3.29521 1.92413 4.67053 1.92413 7.42118V10.6239C1.92413 12.6099 1.92413 13.603 2.39498 14.0369C2.61953 14.2439 2.90298 14.3739 3.20492 14.4084C3.83803 14.4809 4.57736 13.8269 6.05603 12.5191C6.70964 11.941 7.03644 11.6519 7.41455 11.5758C7.60074 11.5383 7.79242 11.5383 7.97861 11.5758C8.35673 11.6519 8.68353 11.941 9.33714 12.5191C10.8158 13.8269 11.5551 14.4809 12.1882 14.4084C12.4902 14.3739 12.7736 14.2439 12.9982 14.0369C13.469 13.603 13.469 12.6099 13.469 10.6239Z" stroke="#1F2D4B"/>
<path opacity="0.5" d="M9.62076 3.84827H5.77246" stroke="#1F2D4B" stroke-linecap="round"/>
</svg>
