<svg width="44" height="44" viewBox="0 0 44 44" fill="none" xmlns="http://www.w3.org/2000/svg">
<rect width="44" height="44" rx="10" fill="#2F62E8" fill-opacity="0.2"/>
<path opacity="0.5" d="M13 22C13 25.7712 13 29.6569 14.318 30.8284C15.636 32 17.7574 32 22 32C26.2426 32 28.364 32 29.682 30.8284C31 29.6569 31 25.7712 31 22" stroke="#2F62E8" stroke-width="1.5"/>
<path d="M24.6603 24.2019L30.6676 22.3997C31.2631 22.2211 31.5609 22.1317 31.7498 21.9176C31.7866 21.8759 31.8199 21.8312 31.8492 21.784C32 21.5415 32 21.2307 32 20.6089C32 18.1588 32 16.9337 31.327 16.1066C31.1977 15.9476 31.0524 15.8023 30.8934 15.673C30.0663 15 28.8412 15 26.3911 15H17.6089C15.1588 15 13.9337 15 13.1066 15.673C12.9476 15.8023 12.8023 15.9476 12.673 16.1066C12 16.9337 12 18.1588 12 20.6089C12 21.2307 12 21.5415 12.1508 21.784C12.1801 21.8312 12.2134 21.8759 12.2502 21.9176C12.4392 22.1317 12.7369 22.2211 13.3324 22.3997L19.3397 24.2019" stroke="#2F62E8" stroke-width="1.5"/>
<path opacity="0.5" d="M16.5 15C17.3234 14.9791 18.1593 14.4549 18.4394 13.6803C18.4481 13.6565 18.4569 13.63 18.4746 13.577L18.5002 13.5C18.5424 13.3734 18.5635 13.3101 18.5861 13.254C18.8743 12.5371 19.5496 12.0504 20.3208 12.0037C20.3812 12 20.4479 12 20.5814 12H23.4191C23.5525 12 23.6192 12 23.6796 12.0037C24.4508 12.0504 25.1262 12.5371 25.4144 13.254C25.4369 13.3101 25.458 13.3734 25.5002 13.5L25.5259 13.577C25.5435 13.6297 25.5524 13.6566 25.561 13.6803C25.8412 14.4549 26.6766 14.9791 27.5 15" stroke="#2F62E8" stroke-width="1.5"/>
<path d="M24 22.5H20C19.7239 22.5 19.5 22.7239 19.5 23V25.1615C19.5 25.3659 19.6245 25.5498 19.8143 25.6257L20.5144 25.9058C21.4681 26.2872 22.5319 26.2872 23.4856 25.9058L24.1857 25.6257C24.3755 25.5498 24.5 25.3659 24.5 25.1615V23C24.5 22.7239 24.2761 22.5 24 22.5Z" stroke="#2F62E8" stroke-width="1.5" stroke-linecap="round"/>
</svg>
