<svg width="24" height="24" viewBox="0 0 24 24" fill="none" xmlns="http://www.w3.org/2000/svg">
<path d="M10.165 7.77922L10.6669 8.13443C11.0567 8.41029 11.5225 8.55844 12 8.55844C12.4776 8.55844 12.9434 8.41029 13.3332 8.13441L13.8351 7.77922C14.5514 7.27225 15.4074 7 16.2849 7H16.8974C17.3016 7 17.7099 7.02549 18.0908 7.16059C20.4735 8.00566 22.1125 11.095 21.994 18.1026C21.9701 19.5145 21.6397 21.075 20.3658 21.6842C19.9688 21.8741 19.5033 22 18.9733 22C18.3373 22 17.8322 21.8187 17.4424 21.5632C16.5285 20.9642 15.8588 19.9639 14.8888 19.4609C14.3048 19.1581 13.6566 19 12.9989 19H11.0011C10.3434 19 9.69519 19.1581 9.11125 19.4609C8.14122 19.9639 7.47153 20.9642 6.55763 21.5632C6.1678 21.8187 5.66273 22 5.02671 22C4.49667 22 4.03121 21.8741 3.63423 21.6842C2.3603 21.075 2.02992 19.5145 2.00604 18.1026C1.88749 11.095 3.52645 8.00566 5.90915 7.16059C6.29009 7.02549 6.69838 7 7.10257 7H7.71504C8.59264 7 9.44862 7.27225 10.165 7.77922Z" stroke="#1C274C" stroke-width="1.5" stroke-linecap="round"/>
<path opacity="0.5" d="M12 2V5" stroke="#1C274C" stroke-width="1.5" stroke-linecap="round"/>
<path d="M10.5 7.5V6C10.5 5.44772 10.9477 5 11.5 5H12.5C13.0523 5 13.5 5.44772 13.5 6V7.5" stroke="#1C274C" stroke-width="1.5" stroke-linecap="round"/>
<path opacity="0.5" d="M7.5 12V15M6 13.5L9 13.5" stroke="#1C274C" stroke-width="1.5" stroke-linecap="round"/>
<g opacity="0.5">
<path d="M19 13.25C19 13.6642 18.6642 14 18.25 14C17.8358 14 17.5 13.6642 17.5 13.25C17.5 12.8358 17.8358 12.5 18.25 12.5C18.6642 12.5 19 12.8358 19 13.25Z" fill="#1C274C"/>
<path d="M16 13.25C16 13.6642 15.6642 14 15.25 14C14.8358 14 14.5 13.6642 14.5 13.25C14.5 12.8358 14.8358 12.5 15.25 12.5C15.6642 12.5 16 12.8358 16 13.25Z" fill="#1C274C"/>
<path d="M16.75 11C17.1642 11 17.5 11.3358 17.5 11.75C17.5 12.1642 17.1642 12.5 16.75 12.5C16.3358 12.5 16 12.1642 16 11.75C16 11.3358 16.3358 11 16.75 11Z" fill="#1C274C"/>
<path d="M16.75 14C17.1642 14 17.5 14.3358 17.5 14.75C17.5 15.1642 17.1642 15.5 16.75 15.5C16.3358 15.5 16 15.1642 16 14.75C16 14.3358 16.3358 14 16.75 14Z" fill="#1C274C"/>
</g>
</svg>
