<svg width="15" height="15" viewBox="0 0 15 15" fill="none" xmlns="http://www.w3.org/2000/svg">
<g clip-path="url(#clip0_431_1034)">
<path opacity="0.5" d="M1.25 7.5H13.75M10 7.5C10 8.32076 9.93534 9.13349 9.8097 9.89177C9.68406 10.6501 9.49991 11.3391 9.26777 11.9194C9.03562 12.4998 8.76002 12.9602 8.45671 13.2742C8.15339 13.5883 7.8283 13.75 7.5 13.75C7.1717 13.75 6.84661 13.5883 6.54329 13.2742C6.23998 12.9602 5.96438 12.4998 5.73223 11.9194C5.50009 11.3391 5.31594 10.6501 5.1903 9.89177C5.06466 9.13349 5 8.32076 5 7.5C5 6.67924 5.06466 5.86651 5.1903 5.10823C5.31594 4.34994 5.50009 3.66095 5.73223 3.08058C5.96438 2.50022 6.23998 2.03984 6.54329 1.72575C6.84661 1.41166 7.1717 1.25 7.5 1.25C7.82831 1.25 8.15339 1.41166 8.45671 1.72575C8.76002 2.03985 9.03562 2.50022 9.26777 3.08058C9.49991 3.66095 9.68406 4.34994 9.8097 5.10823C9.93534 5.86651 10 6.67924 10 7.5Z" stroke="#1F2D4B" stroke-linecap="round"/>
<path d="M13.75 7.5C13.75 8.32076 13.5883 9.13349 13.2742 9.89177C12.9602 10.6501 12.4998 11.3391 11.9194 11.9194C11.3391 12.4998 10.6501 12.9602 9.89177 13.2742C9.13349 13.5883 8.32076 13.75 7.5 13.75C6.67924 13.75 5.86651 13.5883 5.10823 13.2742C4.34994 12.9602 3.66095 12.4998 3.08058 11.9194C2.50022 11.3391 2.03984 10.6501 1.72575 9.89177C1.41166 9.13349 1.25 8.32076 1.25 7.5C1.25 6.67924 1.41166 5.86651 1.72575 5.10823C2.03985 4.34994 2.50022 3.66095 3.08058 3.08058C3.66095 2.50022 4.34994 2.03984 5.10823 1.72575C5.86651 1.41166 6.67924 1.25 7.5 1.25C8.32076 1.25 9.13349 1.41166 9.89177 1.72575C10.6501 2.03985 11.3391 2.50022 11.9194 3.08058C12.4998 3.66095 12.9602 4.34994 13.2742 5.10823C13.5883 5.86651 13.75 6.67924 13.75 7.5L13.75 7.5Z" stroke="#1F2D4B"/>
</g>
<defs>
<clipPath id="clip0_431_1034">
<rect width="15" height="15" fill="white"/>
</clipPath>
</defs>
</svg>
