<svg width="40" height="40" viewBox="0 0 40 40" fill="none" xmlns="http://www.w3.org/2000/svg">
<path d="M30 0C35.5228 0 40 4.47715 40 10V30C40 35.5228 35.5228 40 30 40H10C4.47715 40 0 35.5228 0 30V10C0 4.47715 4.47715 0 10 0H30ZM22.7129 7.93652C21.4907 6.68836 19.5093 6.68836 18.2871 7.93652L11.417 14.9531C10.1948 16.2013 10.1948 18.2245 11.417 19.4727L11.4395 19.4961L11.417 19.5186C10.1948 20.7667 10.1949 22.7899 11.417 24.0381L13.4863 26.1514C13.5186 26.1875 13.5517 26.2239 13.5859 26.2588L18.291 31.0635L18.3057 31.0781C19.5289 32.3117 21.4994 32.3068 22.7168 31.0635L27.4219 26.2588C27.4781 26.2013 27.5319 26.1416 27.583 26.0811L29.583 24.0381C30.8051 22.7899 30.8052 20.7667 29.583 19.5186L29.5605 19.4961L29.583 19.4727C30.8052 18.2245 30.8052 16.2013 29.583 14.9531L22.7129 7.93652ZM23.9453 25.2305C24.47 25.7951 24.4663 26.685 23.9326 27.2441L23.9189 27.2568L21.5039 29.7236L21.4912 29.7373C20.9392 30.2868 20.058 30.2866 19.5059 29.7373L19.4922 29.7236L17.083 27.2627C16.5359 26.7039 16.528 25.8035 17.0586 25.2344L18.2871 26.4893C19.5093 27.7374 21.4907 27.7374 22.7129 26.4893L23.9453 25.2305ZM19.5107 22.7285C20.0672 22.1744 20.9586 22.1793 21.5098 22.7422L22.7393 23.9971L21.5059 25.2568C20.9504 25.824 20.0496 25.8241 19.4941 25.2568L18.2646 24.001L19.498 22.7422L19.5107 22.7285ZM15.8506 24.001C15.4828 24.3851 15.2291 24.8408 15.0889 25.3232L14.7266 24.9531C14.2384 24.3824 14.2605 23.5145 14.793 22.9707L14.8174 22.9463L15.8506 24.001ZM26.2148 22.9707L26.2285 22.9844C26.7335 23.5135 26.7642 24.3387 26.3213 24.9043L25.9141 25.3203C25.7742 24.8376 25.5209 24.3815 25.1533 23.9971L26.1865 22.9414L26.2148 22.9707ZM13.6104 21.7129L13.5859 21.7383C13.2247 22.1072 12.97 22.5444 12.8223 23.0088L12.624 22.8057C12.0685 22.2383 12.0685 21.3183 12.624 20.751L12.6465 20.7285L13.6104 21.7129ZM28.376 20.751C28.9315 21.3183 28.9315 22.2383 28.376 22.8057L28.1836 23.0029C28.0356 22.5408 27.7816 22.1056 27.4219 21.7383L27.3936 21.709L28.3535 20.7285L28.376 20.751ZM19.5107 18.1523C20.0672 17.5982 20.9586 17.6031 21.5098 18.166L24.9795 21.709L23.9463 22.7646L22.7168 21.5088C21.4947 20.2609 19.5131 20.2609 18.291 21.5088L17.0576 22.7686L16.0244 21.7129L19.498 18.166L19.5107 18.1523ZM19.4941 13.7344C20.0496 13.1672 20.9504 13.1672 21.5059 13.7344L27.1465 19.4961L26.1865 20.4766L22.7168 16.9326C21.4947 15.6847 19.5131 15.6846 18.291 16.9326L14.8174 20.4805L13.8535 19.4961L19.4941 13.7344ZM19.4941 9.16895C20.0497 8.6016 20.9503 8.6016 21.5059 9.16895L28.376 16.1855C28.9315 16.7529 28.9315 17.6729 28.376 18.2402L28.3535 18.2627L22.7129 12.502C21.4907 11.2538 19.5093 11.2538 18.2871 12.502L12.6465 18.2627L12.624 18.2402C12.0685 17.6729 12.0685 16.7529 12.624 16.1855L19.4941 9.16895Z" fill="#1F2D4B"/>
</svg>
