<svg width="29" height="36" viewBox="0 0 29 36" fill="none" xmlns="http://www.w3.org/2000/svg">
<path fill-rule="evenodd" clip-rule="evenodd" d="M11.2913 1.32784C13.0634 -0.442614 15.9366 -0.442613 17.7087 1.32784L27.6709 11.2805C29.443 13.051 29.443 15.9215 27.6709 17.6919L27.6384 17.7244L27.6709 17.7568C29.443 19.5273 29.443 22.3977 27.6709 24.1682L24.7708 27.0656C24.6967 27.1516 24.6188 27.2354 24.5372 27.317L17.7144 34.1333C15.9492 35.8968 13.0915 35.9037 11.3178 34.154L11.2969 34.1333L4.47412 27.317C4.42452 27.2674 4.37632 27.217 4.3295 27.1658L1.3291 24.1682C-0.443029 22.3977 -0.443036 19.5273 1.3291 17.7568L1.36157 17.7244L1.3291 17.6919C-0.443033 15.9215 -0.443033 13.051 1.3291 11.2805L11.2913 1.32784ZM17.7087 27.6446C15.9366 29.4151 13.0634 29.4151 11.2913 27.6446L9.5093 25.8644C8.73989 26.6716 8.75186 27.9493 9.54521 28.7419L13.0389 32.2323L13.0579 32.251C13.8585 33.0308 15.1364 33.0308 15.937 32.251L15.956 32.2323L19.4579 28.7337L19.4766 28.7147C20.2506 27.9217 20.2571 26.6598 19.4963 25.8588L17.7087 27.6446ZM15.9642 22.329C15.165 21.5305 13.873 21.5243 13.0661 22.3103L13.0472 22.329L11.2591 24.1154L13.0415 25.8961C13.847 26.7008 15.153 26.7008 15.9585 25.8961L17.7466 24.1097L15.9642 22.329ZM6.22434 22.6541C5.45229 23.4254 5.42024 24.6561 6.12814 25.4656L6.65377 25.9907C6.85709 25.3063 7.22546 24.6604 7.75884 24.1156L6.26015 22.6183L6.22434 22.6541ZM21.2468 24.1099C21.7798 24.6553 22.1477 25.3016 22.3505 25.9864L22.941 25.3964C23.5833 24.5941 23.5382 23.4236 22.8057 22.6731L22.787 22.6541L22.7455 22.6126L21.2468 24.1099ZM3.07933 19.5054C2.27382 20.3101 2.27382 21.6149 3.07933 22.4196L3.36714 22.7072C3.58128 22.0484 3.95027 21.4289 4.47412 20.9056L4.50994 20.8698L3.11178 19.4729L3.07933 19.5054ZM24.4957 20.8641L24.5372 20.9056C25.0588 21.4267 25.4269 22.043 25.6414 22.6986L25.9207 22.4196C26.7262 21.6149 26.7262 20.3101 25.9207 19.5054L25.8882 19.4729L24.4957 20.8641ZM15.9642 15.8378C15.165 15.0393 13.873 15.0331 13.0661 15.8191L13.0472 15.8378L8.01039 20.8698L9.50885 22.3668L11.2969 20.5804C13.0691 18.81 15.9423 18.81 17.7144 20.5804L19.4968 22.3611L20.9953 20.8641L15.9642 15.8378ZM15.9585 9.55268C15.153 8.74793 13.847 8.74793 13.0415 9.55268L4.86202 17.7244L6.26017 19.1212L11.2969 14.0892C13.0691 12.3188 15.9423 12.3188 17.7144 14.0892L22.7455 19.1155L24.138 17.7244L15.9585 9.55268ZM15.9585 3.07639C15.153 2.27165 13.847 2.27165 13.0415 3.07639L3.07933 13.0291C2.27382 13.8339 2.27382 15.1386 3.07933 15.9434L3.11178 15.9758L11.2913 7.80413C13.0634 6.03367 15.9366 6.03367 17.7087 7.80413L25.8882 15.9758L25.9207 15.9434C26.7262 15.1386 26.7262 13.8339 25.9207 13.0291L15.9585 3.07639Z" fill="url(#paint0_linear_125_70)"/>
<defs>
<linearGradient id="paint0_linear_125_70" x1="14.5" y1="6.46114" x2="14.5" y2="35.4611" gradientUnits="userSpaceOnUse">
<stop stop-color="#B8B9E8"/>
<stop offset="1" stop-color="#1F2D4B"/>
</linearGradient>
</defs>
</svg>
