<svg width="105" height="105" viewBox="0 0 105 105" fill="none" xmlns="http://www.w3.org/2000/svg">
<rect width="105" height="105" rx="20" fill="#5259FF" fill-opacity="0.2"/>
<path d="M53 79.6668C50.2821 79.6668 49.32 79.2466 47.3962 78.4062C40.3039 75.3081 29 68.012 29 52.9771V48.7782C29 40.2513 29 35.9879 30.0067 34.5535C31.0134 33.1192 35.022 31.7467 43.0396 29.0023L44.5671 28.4794C48.7464 27.0488 50.8361 26.3335 52.9998 26.3335" stroke="#5259FF" stroke-width="2.5"/>
<path opacity="0.5" d="M53.0002 79.6668C55.7182 79.6668 56.6802 79.2466 58.604 78.4062C65.6963 75.3081 77.0002 68.012 77.0002 52.9771V48.7782C77.0002 40.2513 77.0002 35.9879 75.9935 34.5535C74.9868 33.1192 70.9778 31.7467 62.9602 29.0023L61.4327 28.4794C57.2534 27.0488 55.1637 26.3335 53 26.3335" stroke="#5259FF" stroke-width="2.5"/>
</svg>
