<svg width="16" height="16" viewBox="0 0 16 16" fill="none" xmlns="http://www.w3.org/2000/svg">
<g clip-path="url(#clip0_407_1122)">
<path d="M6.27448 2.24466C7.18589 1.81737 8.20727 1.81737 9.11868 2.24466L13.4103 4.25667C14.3438 4.69432 14.3438 6.20931 13.4103 6.64696L9.11874 8.65894C8.20733 9.08623 7.18595 9.08623 6.27454 8.65894L1.98291 6.64693C1.0494 6.20928 1.0494 4.6943 1.98291 4.25664L6.27448 2.24466Z" stroke="#1F2D4B"/>
<path opacity="0.5" d="M1.28278 5.45178V8.97939" stroke="#1F2D4B" stroke-linecap="round"/>
<path opacity="0.5" d="M12.1863 7.37585V10.6632C12.1863 11.3097 11.8633 11.9151 11.2977 12.2283C10.356 12.7498 8.84852 13.469 7.69659 13.469C6.54466 13.469 5.03723 12.7498 4.09544 12.2283C3.52985 11.9151 3.20691 11.3097 3.20691 10.6632V7.37585" stroke="#1F2D4B" stroke-linecap="round"/>
</g>
<defs>
<clipPath id="clip0_407_1122">
<rect width="15.3932" height="15.3932" fill="white"/>
</clipPath>
</defs>
</svg>
